<svg xmlns="http://www.w3.org/2000/svg" version="1.1" xmlns:xlink="http://www.w3.org/1999/xlink" xmlns:svgjs="http://svgjs.dev/svgjs" viewBox="0 0 800 800"><defs><linearGradient x1="50%" y1="0%" x2="50%" y2="100%" id="ssscribble-grad"><stop stop-color="hsl(206, 75%, 49%)" stop-opacity="1" offset="0%"></stop><stop stop-color="hsl(331, 90%, 56%)" stop-opacity="1" offset="100%"></stop></linearGradient></defs><g fill="none" stroke-width="1.5" stroke="url(#ssscribble-grad)" stroke-linecap="round"><path d="M968 491.24C918.57 508.29 859.45 525.5 812.68 542.76 794.78 559.94 810.36 577.05 851.61 593.86 948.34 626.7 954.35 656.77 860.37 681.71 752.59 709.83 864.87 718.72 796.69 705.37 698.38 700.83 619.86 702.14 582.14 715 583.64 744.61 602.43 788.66 616.46 843.03 625.39 900.11 615.48 948.67 591.66 977 577.73 982.1 562.06 979.94 545.46 970.5 528.49 955.43 511.31 934.76 494.26 909.92 477.21 883.89 460.69 858.04 444.44 834.24 427.83 814.52 410.77 799.48 392.55 789.8 352.05 789.34 299.92 807.55 231.89 835.5 158.76 867.83 83.81 890.09 29.74 896.13 14.91 886.87 44.46 859.42 98.07 818.61 121.03 768.89 81.64 714.89 -18.01 661.5 -110.34 609.3 -124.59 561.48 -49.97 518.46 19 478.43 -6.41 441.61 -116.31 406.77 -164.13 389.74 -184.73 372.83 -170.21 355.94 -126.81 339.12 -69.42 322.19 -19.99 305.14 0.89 288.09 -13.56 271.32 -56.41 254.92 -112.09 238.6 -158.2 222.78 -178.13 207.66 -123.89 178.18 -11.15 152.96 38.59 133.89 -13.2 117.8 -90.35 109.46 -103.86 109.1 -34.92 109.92 68.48 114.96 141.25 119.99 155.43 116.1 125.67 103.12 90.63 76.88 69.41 35.32 83.16 -17.51 123.12 -74.84 180.89 -127.78 242.41 -165.41 297.4 -178.11 325.04 -175.02 350.15 -165 372.55 -148.66 394.87 -128.24 414.6 -104.12 431.66 -78.09 448.71 -53.25 462.68 -30.84 473.58 -12.39 488.2 4 506.11 -20.65 507.7 -67.31 526.83 -96.69 569.24 -110.15 643.01 -104.25 730.61 -81.6 809.33 -42.48 839.87 6.74 811.81 61.62 748.83 116.92 715.39 168.68 764.39 216.78 872.13 259.36 948.94 297.14 924.21 331.29 830.88 363.26 789.78 394.74 816.27 410.08 867.39 425.71 926.45 441.73 972.68 457.69 988.89 474.18 968.03 491.23Q968 491.24 968 491.24" opacity="0.11"></path><path d="M930 489.85C830.4 521.33 759.01 550.36 790.68 576.15 883.54 601.14 926.61 621.47 873.99 635.89 736.2 651.17 789.51 651.28 817.3 647.19 766.78 653.01 685.1 666.81 605.7 691.84 543.9 729.91 510.28 777.87 495.59 830.62 495.46 901.3 468.34 927.9 426.96 871.92 395.48 824.37 353.82 782.38 302.84 754.85 252.12 747.98 195.19 758.05 140.6 779.08 91.62 820.2 144.92 844.05 172.42 812.62 128.93 777.29 40.47 734.19 -51.05 687.78 -87.55 639.09 -46.3 591.59 33.67 547.14 63.21 503.73 2.22 463.65 -102.78 426.88 -146.59 390.73 -81.59 356.87 18 325.39 27.89 293.91 -58.11 266.3 -133.65 243.07 -114.29 220.48 -15.28 203.29 67.81 192.14 36.39 179.87 -21.12 174.71 102.8 167.74 179.77 151.92 214.66 126.58 213.87 90.17 188.48 43.44 165.38 -9.3 157.96 -61.23 162.15 -105.34 183.6 -133.32 214.3 -138.61 249.73 -123.24 285.28 -87.63 316.76 -40.09 348.25 3.44 374.16 34.72 398.1 47.96 426.77 39.9 462.58 17.98 512.94 -9.69 574.91 -39.37 649.85 -59.1 723.76 -64.4 773.08 -56.65 783.4 -33.13 747.69 2.3 697.94 46 669.42 94.48 703.03 143.51 793.28 192.64 885.74 238.74 908.14 280.89 848.13 321.02 767.04 357.96 759.8 392.34 847.47 425.92 939.88 458.36 930.03 489.84Q930 489.85 930 489.85" opacity="0.31"></path><path d="M892 455.75C801.4 484.6 725.89 509.09 734.22 528.96 812.76 548.47 878.84 562.84 871.87 571.93 795.69 580.75 703.7 585.03 652 586.15 684.32 592.32 756.31 632.24 689.06 678.7 617.69 721.37 549.52 769.41 494.2 817.63 449.25 860.63 416.68 891.61 390.12 904.41 367.55 899.22 343.36 874.26 314.5 833.92 285.64 790.19 253.49 750.22 221.64 721.3 184.12 734.98 223.71 801.1 160.32 789.95 78.75 769.92 -2.23 740.75 -41.21 705.77 -19.56 666.57 46.55 625.59 101.58 585.24 87.39 544.25 4.89 505.43 -84.77 469.74 -104.24 434.17 -34.58 401.67 56.01 372.81 69.83 343.96 -2.17 320.1 -82.21 301.26 -94.44 282.52 -22.88 268.85 71.29 259.84 109.97 246.9 -8.61 222.73 41.34 198.82 120.88 172.32 198.29 137.75 253.54 95.52 282.46 47.92 289.11 -1.04 286.96 -45.3 276.03 -89.33 302.54 -62.85 341.28 -2.06 370.13 38.27 406.72 69.08 451.5 85.41 497.66 83.74 552.69 69.19 612.37 47.33 684.96 9.19 692.19 -13.82 632.48 11.79 620.46 41.29 654.43 78.15 734.84 118.73 822.79 162.09 869.57 205.34 841.58 246.52 768.56 287.44 713.42 325.57 736.79 360.48 827.97 395.03 905.82 426.89 892 455.75Q892 455.75 892 455.75" opacity="0.79"></path><path d="M854 401.35C772.55 427.58 696.04 449.12 683.79 466.12 777.13 489.59 773.19 519.27 654.44 530.89 607.23 542.43 605.8 556.71 634.68 575.78 676.89 601.95 703.83 634.65 705.2 673.47 683.34 716.67 641.86 761.33 592.74 802.79 538 837.25 487.95 859.67 445.92 865.95 404.96 857.51 371.45 832.97 345.22 795.92 318.98 756.06 301.27 718.51 292.75 689.09 286.47 670.59 299.71 699.63 280.28 726.16 238.47 742.15 173.88 750.4 97.28 749.83 34.01 743.07 4.35 727.65 24.24 705.53 76.58 678.91 131.24 648.42 144.09 616.33 94 582.6 6.32 549.24 -60.76 517.65 -58.63 485.79 12.55 456.34 94 430.11 110.92 403.88 53.27 382.1 -24.97 364.48 -62.01 346.59 -24.76 332.24 58.23 320.5 135.63 307.13 165.03 294.42 143.33 280.61 90.38 262.3 47.05 240.05 37.36 212.44 64.49 178.63 121.05 139.27 187.27 95.97 253.55 51.51 305.99 9.2 343.48 -25.96 369.5 -51.05 387.69 -61.69 404.68 -55.47 418.83 -36.18 437.86 -3.94 464.09 35.9 490.32 72.96 522.52 102.82 557.84 121.39 623.88 95.61 576.97 30.96 574.76 38.38 618.82 53.69 693.25 77.07 773.53 105.96 822.55 138.79 816.69 173.95 758.52 209.27 694.75 245.62 672.42 280.55 719.56 312.95 807.93 345.42 870.91 375.11 854.03 401.34Q854 401.35 854 401.35" opacity="0.37"></path><path d="M816 346.46C743.77 370.07 669.18 390.13 640.42 406.95 672.44 424.09 736.84 438.68 789.28 451.57 801.14 466.04 761.89 480.48 692.53 496.25 619.27 515.74 568.51 538.63 548.9 565.82 558.99 597.73 584.08 633.91 608.73 673.07 629.8 713.12 635.16 751.68 625.88 784.97 607.15 810.72 580.36 825.27 551.33 826.06 519.96 815.24 491.28 791.59 467.67 757.92 444.06 721.97 426.64 687.21 413.48 658.14 397.98 638.89 381.82 629.06 359.63 627.92 327.99 636.18 283.76 648.73 226.29 662.31 165.26 677.71 106.27 689.07 65.24 694.72 53.9 697.1 76.66 692.55 125.35 681.78 170.12 667.46 188.2 648.39 159.03 626.19 89.28 602.18 11.45 576.73 -29.67 551.21 -10.03 525.24 59.77 500.07 132 476.46 151.16 452.85 107.6 431.91 36.46 413.35 -16.37 394.35 -12.9 376.84 42.74 359.94 121.43 341.23 184.97 321.41 210.7 299.34 195.2 273.73 156.68 244.38 118.97 211.06 93.78 174.46 95.72 135.12 121.31 95.14 164.72 56.97 216.31 23.24 266.68 -2.32 317.08 -18.48 359.85 -22.09 394.84 -11.96 428.02 7.98 455.98 37.96 479.59 73.9 527.3 142.76 517.13 130.05 503.75 105.88 514.54 91.31 546.49 83.12 602.62 82.16 671.28 85.9 737.79 96.92 777.88 113.81 776.75 134.43 734.4 158.87 673.01 185.32 634.66 213.35 644.6 241.7 706.55 269.09 786.8 296.8 835.15 322.84 816.03 346.45Q816 346.46 816 346.46" opacity="0.56"></path><path d="M778 311.06C714.98 332.05 644.91 351.44 604.62 369.44 612.19 387.84 657.4 405.59 712.48 423.36 753.43 442.58 757.61 463.09 725.37 485.62 667.61 510.76 602.84 538.86 547.8 569.92 509.8 603.18 492.75 638.39 490.98 673.9 501.97 707.93 515 738.64 523.69 763.19 531.83 784.5 505.7 761.28 476.79 719.92 455.8 687.92 430.67 656.27 400.84 628.37 369.61 607.49 331.65 593.53 287.03 586.46 241.97 587.4 194.38 592.94 151.04 600.93 139.64 627.36 220.09 625.26 152.26 607.14 81.79 592.44 24.64 575.09 8.97 555.98 41.16 536.46 106.98 515.96 170 494.97 190.52 473.98 160.2 453.51 100.2 433.44 41.2 412.97 17.76 392.15 39.57 370.48 96.44 347.44 165.62 322.47 222.63 295.19 253.62 265.89 255.03 233.94 236.3 199.9 204.54 165.14 176.84 130.07 161.55 96.77 157.33 66.93 168.48 42.57 190.15 26.24 219.2 17.92 251.27 19.94 281.78 32.72 313.57 52.52 340.79 79.9 361.77 111.9 382.76 142.1 396.53 168.69 404.32 189.13 416.44 202.92 453.21 187.86 501.48 169.73 549.11 156.07 606.94 145.75 666.21 139.99 724.2 137.46 666.48 162.51 599.8 186.69 593.37 205.3 628.74 225.72 695.82 246.9 763.93 268.48 798.52 290.06 778.03 311.05Q778 311.06 778 311.06" opacity="0.24"></path><path d="M740 308.03C686.08 326.4 622.73 345.08 576.26 364.06 563.3 383.34 584.38 403.45 626.21 424.63 674.41 446.74 707.36 470.6 715.11 496.3 697.48 523.25 658.05 552.12 607.9 582.34 553.87 612.77 506.22 643.24 469.14 672.19 441.93 698.45 424.76 720.6 413.67 736.71 405.54 747.85 381.76 718.86 357.3 681.92 338.94 653.89 315.27 625.66 287.67 599.66 261.09 578.39 232.89 561.82 206.6 550.32 225.93 559.61 222.39 569.78 136.02 560.5 80.72 552.49 49.2 541.4 55.07 527.61 94.45 513.58 154.08 497.27 208 478.91 228.99 460.54 210.52 440.99 164.09 420.4 107.85 399.56 68.38 377.24 59.91 353.43 83.49 328.95 132.36 302.57 190.63 274.55 245.9 245.98 285.81 216.14 306.9 185.99 309.43 156.81 299.5 129.03 284.94 104.35 253.3 68.58 281.55 109.64 307.96 149.92 326.32 176.56 346.09 200.87 368.08 220.99 391.55 234.78 419.77 243.16 454.18 246.51 491.65 243.87 535.33 238.19 582.37 231.04 660.19 207.81 576.43 204.65 550.1 217.55 572.02 228.2 621.93 241.49 685.26 256.84 738.78 272.49 760.99 289.66 740.03 308.02Q740 308.03 740 308.03" opacity="0.13"></path><path d="M702 338.49C602.4 369.97 528.28 407.72 545.48 450.42 623.19 494.44 669.4 544.39 649.94 595.82 581.15 643.45 499.28 683.28 434.75 705.04 379.93 708.71 340.79 687.45 309.31 643.92 277.83 596.37 256.99 551.96 257.25 519.54 267.22 504.37 299.96 499.8 327.49 499.32 305.7 505.62 226.1 505.81 125.31 496.19 85.04 486.3 146.4 465.6 246 434.12 255.89 402.64 175.68 363.36 108.04 318.69 117.1 273.77 200.86 224.44 290.92 176.88 351.99 136.1 371.73 107.28 376.05 99.37 368.71 108.71 376.78 140.36 408.26 187.9 439.73 231.44 491.64 265.46 553.53 284.87 618.48 282.97 539.4 262.79 528.2 272.91 618.9 284.77 711.88 307 702.03 338.48Q702 338.49 702 338.49" opacity="0.35"></path><path d="M664 391.33C582.55 417.56 504.53 450.69 483.64 488.1 523.8 525.17 580.01 565.09 611.13 602.9 612.15 635.48 579.01 659.28 534.59 667.99 482.56 664.34 439.42 642.97 413.19 605.92 386.95 566.06 380.11 526.6 386.68 493.89 385.64 471.98 377.83 457.61 342.42 447.9 234.91 442.32 168.86 411.73 284 376.91 300.92 350.67 247.99 317.87 180.15 281.64 142.22 246.47 166.01 210.48 227.42 179.2 303.81 154.53 367.21 141.07 410.44 143.75 443.07 157.22 468.48 186.05 494.71 225.9 520.94 262.96 545.52 294.97 558.36 317.84 549.38 330.38 471.11 331.28 530.27 340.18 617.33 348.23 680.91 365.09 664.03 391.32Q664 391.33 664 391.33" opacity="0.82"></path><path d="M626 447.33C562.98 468.31 492.19 493.84 448.56 521.39 444.88 547.97 470.48 574.56 502.34 597.31 542.65 620.94 525.54 607.96 494.97 567.92 473.98 535.92 453.17 502.82 427.64 472.84 395.1 448.61 348.04 428.67 287.38 412.47 204.09 395.31 227.84 357.04 322 328.1 342.52 307.11 315.64 283.03 265.36 258.37 201.08 224.23 254.99 185.04 321.69 192.73 366.8 207.32 401.55 231.92 422.54 263.92 443.53 294.11 448.77 322.31 440.04 345.55 432.84 361.49 419.32 373.19 413.71 382.35 431.91 387.1 477.42 393.27 545.45 403.05 611.12 411.87 646.52 426.33 626.03 447.32Q626 447.33 626 447.33" opacity="0.57"></path><path d="M588 486.09C488.4 517.57 409.01 552.46 398.24 575.11 433.25 587.39 449.18 573.45 417.7 529.92 386.22 482.37 313.29 433.15 237.01 394.61 206.53 365.51 260.4 336.94 360 305.46 335.59 259.76 263.18 242.52 312.6 301.92 344.08 345.45 365.2 384.91 416.74 413.89 503.78 432.5 597.89 454.61 588 486.09Q588 486.09 588 486.09" opacity="0.34"></path><path d="M550 493.52C486.98 514.5 414.81 530.34 369.19 535.43 345.04 536.51 331.77 522.11 310.78 491.92 289.79 459.91 265.07 423.91 261.71 392.65 279.82 364.39 334.98 338.23 398 317.24 408.49 290.33 332.2 298.42 349.02 339.92 370.01 370.11 416.35 401.53 477.97 427.95 533.44 450.37 570.52 472.53 550 493.52Q550 493.52 550 493.52" opacity="0.68"></path></g></svg>